<svg width="50" height="50" viewBox="0 0 50 50" fill="none" xmlns="http://www.w3.org/2000/svg">
<circle cx="25" cy="25" r="25" fill="#FF8A00"/>
<path d="M19.62 23.79C21.06 26.62 23.38 28.93 26.21 30.38L28.41 28.18C28.68 27.91 29.08 27.82 29.43 27.94C30.55 28.31 31.76 28.51 33 28.51C33.55 28.51 34 28.96 34 29.51V33C34 33.55 33.55 34 33 34C23.61 34 16 26.39 16 17C16 16.45 16.45 16 17 16H20.5C21.05 16 21.5 16.45 21.5 17C21.5 18.25 21.7 19.45 22.07 20.57C22.18 20.92 22.1 21.31 21.82 21.59L19.62 23.79Z" fill="white"/>
</svg>
