<svg width="25" height="25" viewBox="0 0 25 25" fill="none" xmlns="http://www.w3.org/2000/svg">
<path fill-rule="evenodd" clip-rule="evenodd" d="M12.5 2.06422C6.73648 2.06422 2.06422 6.73648 2.06422 12.5C2.06422 18.2635 6.73648 22.9358 12.5 22.9358C18.2635 22.9358 22.9358 18.2635 22.9358 12.5C22.9358 6.73648 18.2635 2.06422 12.5 2.06422ZM0 12.5C0 5.59644 5.59644 0 12.5 0C19.4036 0 25 5.59644 25 12.5C25 19.4036 19.4036 25 12.5 25C5.59644 25 0 19.4036 0 12.5Z" fill="white"/>
<path fill-rule="evenodd" clip-rule="evenodd" d="M0 12.5C0 11.93 0.462091 11.4679 1.03211 11.4679H23.9679C24.5379 11.4679 25 11.93 25 12.5C25 13.07 24.5379 13.5321 23.9679 13.5321H1.03211C0.462091 13.5321 0 13.07 0 12.5Z" fill="white"/>
<path fill-rule="evenodd" clip-rule="evenodd" d="M8.94519 12.5C9.0249 16.101 10.2792 19.5662 12.5 22.3754C14.7208 19.5662 15.9751 16.101 16.0548 12.5C15.9751 8.89897 14.7208 5.43384 12.5 2.62458C10.2792 5.43384 9.0249 8.89897 8.94519 12.5ZM12.5 1.03211L11.7379 0.336031C8.70077 3.66107 6.97475 7.97612 6.88096 12.4785C6.88066 12.4928 6.88066 12.5072 6.88096 12.5215C6.97475 17.0239 8.70077 21.3389 11.7379 24.664C11.9335 24.878 12.2101 25 12.5 25C12.7899 25 13.0665 24.878 13.2621 24.664C16.2992 21.3389 18.0252 17.0239 18.119 12.5215C18.1193 12.5072 18.1193 12.4928 18.119 12.4785C18.0252 7.97612 16.2992 3.66107 13.2621 0.336031L12.5 1.03211Z" fill="white"/>
</svg>
