<svg width="162" height="31" viewBox="0 0 162 31" fill="none" xmlns="http://www.w3.org/2000/svg">
<path d="M4.19531 1.26953H9.60547L8.16016 12.1094H17.9844L19.4492 1.26953H24.8789L20.9727 30H15.582L17.3594 16.9531H7.45703L5.69922 30H0.328125L4.19531 1.26953ZM44.6836 0.546875C48.6289 0.546875 51.8841 1.81641 54.4492 4.35547C57.0143 6.89453 58.2969 10.1172 58.2969 14.0234C58.2969 17.0182 57.5352 19.8438 56.0117 22.5C54.5013 25.1432 52.4831 27.1745 49.957 28.5938C47.444 30.013 44.5534 30.7227 41.2852 30.7227C37.1966 30.7227 33.9284 29.5117 31.4805 27.0898C29.0456 24.668 27.8281 21.4779 27.8281 17.5195C27.8281 13.0273 29.2865 9.16667 32.2031 5.9375C35.4583 2.34375 39.6185 0.546875 44.6836 0.546875ZM44.4883 5.64453C42.431 5.64453 40.5495 6.14583 38.8438 7.14844C37.151 8.13802 35.7839 9.57031 34.7422 11.4453C33.7005 13.3073 33.1797 15.2344 33.1797 17.2266C33.1797 19.5833 33.9023 21.582 35.3477 23.2227C36.793 24.8633 38.8698 25.6836 41.5781 25.6836C44.7161 25.6836 47.3789 24.5768 49.5664 22.3633C51.7669 20.1497 52.8672 17.4609 52.8672 14.2969C52.8672 11.6797 52.0924 9.58333 50.543 8.00781C49.0065 6.43229 46.9883 5.64453 44.4883 5.64453ZM65.3086 1.26953H70.3281C73.4271 1.26953 75.6081 1.53646 76.8711 2.07031C78.4466 2.73438 79.6315 3.65885 80.4258 4.84375C81.2331 6.01562 81.6367 7.40885 81.6367 9.02344C81.6367 11.0156 81.0443 12.7279 79.8594 14.1602C78.6745 15.5794 76.8841 16.569 74.4883 17.1289L80.7578 30H75.1719L69.0391 17.4609H68.5312L66.8711 30H61.4805L65.3086 1.26953ZM69.1562 12.7539C72.112 12.7409 74.0326 12.4414 74.918 11.8555C75.8164 11.2565 76.2656 10.3646 76.2656 9.17969C76.2656 8.5026 76.0833 7.9362 75.7188 7.48047C75.3672 7.02474 74.8529 6.70573 74.1758 6.52344C73.4987 6.34115 72.125 6.25 70.0547 6.25L69.1562 12.7539ZM87.8086 1.26953H103.414L102.75 6.36719H92.5938L91.7734 12.3047H101.969L101.324 17.3633H91.1289L90.1133 24.9805H100.367L99.6836 30H84.0391L87.8086 1.26953ZM133.609 4.98047L129.684 8.61328C128.837 7.63672 127.802 6.88802 126.578 6.36719C125.354 5.83333 124.026 5.56641 122.594 5.56641C120.589 5.56641 118.668 6.08073 116.832 7.10938C114.996 8.13802 113.564 9.4987 112.535 11.1914C111.52 12.8841 111.012 14.6875 111.012 16.6016C111.012 19.2057 111.91 21.3737 113.707 23.1055C115.504 24.8242 117.809 25.6836 120.621 25.6836C123.629 25.6836 126.233 24.8112 128.434 23.0664L131.617 27.2656C128.349 29.5703 124.566 30.7227 120.27 30.7227C117.249 30.7227 114.677 30.1497 112.555 29.0039C110.445 27.8581 108.746 26.1784 107.457 23.9648C106.181 21.7383 105.543 19.3294 105.543 16.7383C105.543 13.9648 106.298 11.3086 107.809 8.76953C109.332 6.21745 111.389 4.21224 113.98 2.75391C116.572 1.28255 119.397 0.546875 122.457 0.546875C126.754 0.546875 130.471 2.02474 133.609 4.98047ZM150.094 1.26953H154.645L161.793 30H156.559L155.035 23.8867H143.688L140.387 30H134.586L150.094 1.26953ZM153.727 18.8086L151.422 9.375L146.363 18.8086H153.727Z" fill="white"/>
</svg>
