<svg width="23" height="25" viewBox="0 0 23 25" fill="none" xmlns="http://www.w3.org/2000/svg">
<path fill-rule="evenodd" clip-rule="evenodd" d="M1.81209 16.9636C2.97235 15.8033 4.54601 15.1515 6.18687 15.1515H16.2879C17.9287 15.1515 19.5024 15.8033 20.6627 16.9636C21.8229 18.1239 22.4747 19.6975 22.4747 21.3384V23.8636C22.4747 24.4912 21.966 25 21.3384 25C20.7108 25 20.202 24.4912 20.202 23.8636V21.3384C20.202 20.3003 19.7896 19.3047 19.0556 18.5707C18.3215 17.8366 17.326 17.4242 16.2879 17.4242H6.18687C5.14877 17.4242 4.1532 17.8366 3.41915 18.5707C2.68511 19.3047 2.27273 20.3003 2.27273 21.3384V23.8636C2.27273 24.4912 1.76396 25 1.13636 25C0.508767 25 0 24.4912 0 23.8636V21.3384C0 19.6975 0.651829 18.1239 1.81209 16.9636Z" fill="white"/>
<path fill-rule="evenodd" clip-rule="evenodd" d="M11.2374 2.27273C9.07564 2.27273 7.32322 4.02515 7.32322 6.18687C7.32322 8.34859 9.07564 10.101 11.2374 10.101C13.3991 10.101 15.1515 8.34859 15.1515 6.18687C15.1515 4.02515 13.3991 2.27273 11.2374 2.27273ZM5.05049 6.18687C5.05049 2.76996 7.82045 0 11.2374 0C14.6543 0 17.4242 2.76996 17.4242 6.18687C17.4242 9.60378 14.6543 12.3737 11.2374 12.3737C7.82045 12.3737 5.05049 9.60378 5.05049 6.18687Z" fill="white"/>
</svg>
