<svg width="16" height="16" viewBox="0 0 16 16" fill="none" xmlns="http://www.w3.org/2000/svg">
<path d="M13.6313 13.6347H11.262V9.922C11.262 9.03667 11.244 7.89733 10.0273 7.89733C8.792 7.89733 8.60333 8.86067 8.60333 9.85667V13.6347H6.234V6H8.51V7.04067H8.54067C8.85867 6.44067 9.632 5.80733 10.7873 5.80733C13.188 5.80733 13.632 7.38733 13.632 9.444V13.6347H13.6313ZM3.558 4.95533C2.79533 4.95533 2.18267 4.338 2.18267 3.57867C2.18267 2.82 2.796 2.20333 3.558 2.20333C4.318 2.20333 4.934 2.82 4.934 3.57867C4.934 4.338 4.31733 4.95533 3.558 4.95533ZM4.746 13.6347H2.37V6H4.746V13.6347ZM14.8167 0H1.18067C0.528 0 0 0.516 0 1.15267V14.8473C0 15.4847 0.528 16 1.18067 16H14.8147C15.4667 16 16 15.4847 16 14.8473V1.15267C16 0.516 15.4667 0 14.8147 0H14.8167Z" fill="white"/>
</svg>
