<svg width="19" height="16" viewBox="0 0 19 16" fill="none" xmlns="http://www.w3.org/2000/svg">
<path d="M19 2.64534C18.3011 2.93161 17.5505 3.12514 16.7613 3.21212C17.5668 2.76688 18.1838 2.06133 18.4752 1.22161C17.71 1.64112 16.8727 1.93644 15.9995 2.09477C15.2888 1.39554 14.2755 0.958984 13.1544 0.958984C11.0025 0.958984 9.25725 2.56936 9.25725 4.55699C9.25725 4.83862 9.29162 5.11337 9.35767 5.37716C6.11826 5.22687 3.24631 3.79446 1.32396 1.6179C0.988291 2.14948 0.796157 2.76753 0.796157 3.42696C0.796157 4.67509 1.48435 5.77633 2.53004 6.42141C1.91101 6.4037 1.30556 6.24946 0.764311 5.97157V6.01704C0.764311 7.76047 2.10764 9.2142 3.89083 9.54482C3.56326 9.62768 3.21949 9.67096 2.86385 9.67096C2.6124 9.67096 2.36845 9.64899 2.13013 9.60761C2.62614 11.0366 4.06561 12.0768 5.77072 12.1061C4.43674 13.0714 2.75589 13.6469 0.930284 13.6469C0.615846 13.6469 0.30508 13.6295 0 13.5956C1.72518 14.6168 3.77356 15.2129 5.97477 15.2129C13.1438 15.2129 17.0645 9.73031 17.0645 4.97576C17.0645 4.81967 17.0608 4.66474 17.0526 4.51036C17.8165 4.00032 18.4759 3.36879 19 2.64534Z" fill="white"/>
</svg>
