<svg width="16" height="16" viewBox="0 0 16 16" fill="none" xmlns="http://www.w3.org/2000/svg">
<path d="M5.33397 8C5.33397 6.5273 6.52756 5.33312 8.00032 5.33312C9.47308 5.33312 10.6673 6.5273 10.6673 8C10.6673 9.4727 9.47308 10.6669 8.00032 10.6669C6.52756 10.6669 5.33397 9.4727 5.33397 8ZM3.89225 8C3.89225 10.2688 5.73143 12.1079 8.00032 12.1079C10.2692 12.1079 12.1084 10.2688 12.1084 8C12.1084 5.7312 10.2692 3.8921 8.00032 3.8921C5.73143 3.8921 3.89225 5.7312 3.89225 8ZM11.311 3.72922C11.3108 4.25941 11.7404 4.68939 12.2706 4.6896C12.8008 4.68981 13.2308 4.26018 13.2311 3.72998C13.2313 3.19979 12.8016 2.76981 12.2714 2.7696H12.271C11.7411 2.76985 11.3114 3.19928 11.311 3.72922ZM4.76819 14.5118C3.98819 14.4763 3.56424 14.3464 3.2825 14.2366C2.90898 14.0912 2.64247 13.918 2.36227 13.6382C2.08207 13.3584 1.90862 13.0922 1.76385 12.7187C1.65402 12.4371 1.52409 12.013 1.48864 11.233C1.44985 10.3898 1.44211 10.1364 1.44211 8.00006C1.44211 5.86368 1.45049 5.61107 1.48864 4.7671C1.52416 3.98714 1.65504 3.5639 1.76385 3.28147C1.90926 2.90797 2.08245 2.64147 2.36227 2.36128C2.64209 2.08109 2.90834 1.90765 3.2825 1.76288C3.56411 1.65306 3.98819 1.52314 4.76819 1.48768C5.61149 1.4489 5.86481 1.44115 8.00032 1.44115C10.1358 1.44115 10.3894 1.44954 11.2334 1.48768C12.0134 1.5232 12.4367 1.65408 12.7191 1.76288C13.0926 1.90765 13.3591 2.08147 13.6393 2.36128C13.9195 2.64109 14.0923 2.90797 14.2378 3.28147C14.3476 3.56307 14.4775 3.98714 14.513 4.7671C14.5518 5.61107 14.5595 5.86368 14.5595 8.00006C14.5595 10.1364 14.5518 10.3891 14.513 11.233C14.4774 12.013 14.3469 12.4369 14.2378 12.7187C14.0923 13.0922 13.9191 13.3587 13.6393 13.6382C13.3595 13.9178 13.0926 14.0912 12.7191 14.2366C12.4375 14.3464 12.0134 14.4764 11.2334 14.5118C10.3901 14.5506 10.1368 14.5583 8.00032 14.5583C5.86385 14.5583 5.61123 14.5506 4.76819 14.5118ZM4.70195 0.048448C3.85027 0.087232 3.26829 0.222272 2.76005 0.420032C2.23369 0.624256 1.7881 0.89824 1.34284 1.34278C0.897572 1.78733 0.624281 2.2336 0.420049 2.75994C0.222281 3.26848 0.0872355 3.85011 0.0484499 4.70176C0.00902436 5.55475 0 5.82746 0 8C0 10.1725 0.00902436 10.4452 0.0484499 11.2982C0.0872355 12.15 0.222281 12.7315 0.420049 13.2401C0.624281 13.7661 0.897636 14.2129 1.34284 14.6572C1.78804 15.1016 2.23369 15.3752 2.76005 15.58C3.26925 15.7777 3.85027 15.9128 4.70195 15.9516C5.55542 15.9903 5.82769 16 8.00032 16C10.173 16 10.4457 15.991 11.2987 15.9516C12.1504 15.9128 12.732 15.7777 13.2406 15.58C13.7666 15.3752 14.2125 15.1018 14.6578 14.6572C15.1031 14.2127 15.3758 13.7661 15.5806 13.2401C15.7784 12.7315 15.914 12.1499 15.9522 11.2982C15.991 10.4446 16 10.1725 16 8C16 5.82746 15.991 5.55475 15.9522 4.70176C15.9134 3.85005 15.7784 3.26816 15.5806 2.75994C15.3758 2.23392 15.1024 1.78803 14.6578 1.34278C14.2132 0.897536 13.7666 0.624256 13.2412 0.420032C12.732 0.222272 12.1504 0.086592 11.2993 0.048448C10.4463 0.009664 10.1736 0 8.00096 0C5.82833 0 5.55542 0.009024 4.70195 0.048448Z" fill="white"/>
</svg>
